<svg width="48" height="48" viewBox="0 0 48 48" fill="none" xmlns="http://www.w3.org/2000/svg">
<rect width="48" height="48" rx="2" fill="#6264A7"/>
<path d="M5.00579 11.936C5.4958 6.95065 11.3759 4.8287 15.0381 9.48165C18.1071 3.80608 25.8183 3.11581 28.681 9.76287C31.0537 18.4296 19.5255 21.1907 16.0955 25C8.87428 22.2133 4.82526 17.5604 5.00579 11.936Z" fill="#C4314B"/>
<path fill-rule="evenodd" clip-rule="evenodd" d="M33.2881 37.2313C37.2897 40.9066 42.7962 38.5162 43.2907 33.44C43.4886 27.2232 39.052 22.0802 31.1396 19C30.0371 20.2352 28.1709 21.3707 26.1496 22.6006C21.2809 25.5629 15.5125 29.0727 17.3496 35.842C20.0316 42.1242 26.5977 42.477 30.547 38.5255C30.1866 40.2423 28.5275 41.7289 26.1516 42.6505C27.4287 43.1021 28.8936 43.3587 30.451 43.3587C33.4199 43.3587 36.0525 42.4261 37.6887 40.9883C35.6122 40.6353 34.0498 39.6653 33.4921 38.1611C33.3805 37.8602 33.3133 37.5492 33.2881 37.2313Z" fill="white"/>
</svg>
